<svg width="36" height="36" viewBox="0 0 36 36" fill="none" xmlns="http://www.w3.org/2000/svg">
<path d="M18.0977 35.2812C27.48 35.2812 35.0859 27.6753 35.0859 18.293C35.0859 8.9106 27.48 1.30469 18.0977 1.30469C8.71529 1.30469 1.10938 8.9106 1.10938 18.293C1.10938 27.6753 8.71529 35.2812 18.0977 35.2812Z" stroke="#7A7A7A"/>
<path d="M18.0982 28.0011C23.4596 28.0011 27.8058 23.6549 27.8058 18.2935C27.8058 12.9322 23.4596 8.58594 18.0982 8.58594C12.7369 8.58594 8.39062 12.9322 8.39062 18.2935C8.39062 23.6549 12.7369 28.0011 18.0982 28.0011Z" fill="#AE63FF"/>
<path d="M18.0982 28.0011C23.4596 28.0011 27.8058 23.6549 27.8058 18.2935C27.8058 12.9322 23.4596 8.58594 18.0982 8.58594C12.7369 8.58594 8.39062 12.9322 8.39062 18.2935C8.39062 23.6549 12.7369 28.0011 18.0982 28.0011Z" fill="url(#paint0_linear_537_293)"/>
<path d="M18.0982 28.0011C23.4596 28.0011 27.8058 23.6549 27.8058 18.2935C27.8058 12.9322 23.4596 8.58594 18.0982 8.58594C12.7369 8.58594 8.39062 12.9322 8.39062 18.2935C8.39062 23.6549 12.7369 28.0011 18.0982 28.0011Z" fill="url(#paint1_linear_537_293)"/>
<path d="M23.3735 13.8508L22.4081 13.1945C22.1409 13.0137 21.7749 13.0831 21.5962 13.3481L16.8636 20.3271L14.6887 18.1522C14.4615 17.925 14.0913 17.925 13.8642 18.1522L13.0376 18.9788C12.8104 19.206 12.8104 19.5762 13.0376 19.8054L16.3819 23.1498C16.5691 23.337 16.8636 23.48 17.1286 23.48C17.3936 23.48 17.6608 23.3138 17.8332 23.0635L23.5291 14.6606C23.71 14.3956 23.6406 14.0317 23.3735 13.8508Z" fill="white"/>
<defs>
<linearGradient id="paint0_linear_537_293" x1="11.234" y1="11.4293" x2="24.9624" y2="25.1577" gradientUnits="userSpaceOnUse">
<stop stop-color="#EF2D00"/>
<stop offset="1" stop-color="#A13921"/>
</linearGradient>
<linearGradient id="paint1_linear_537_293" x1="18.0982" y1="8.58594" x2="18.0982" y2="28.1449" gradientUnits="userSpaceOnUse">
<stop stop-color="#6EE943"/>
<stop offset="1" stop-color="#0A7B30"/>
</linearGradient>
</defs>
</svg>
