<svg width="32" height="32" viewBox="0 0 32 32" fill="none" xmlns="http://www.w3.org/2000/svg">
<path d="M29.3333 16C29.3333 23.3637 23.3637 29.3333 16 29.3333C8.6362 29.3333 2.66666 23.3637 2.66666 16C2.66666 8.6362 8.6362 2.66666 16 2.66666C23.3637 2.66666 29.3333 8.6362 29.3333 16Z" fill="#0D0D0D"/>
<path d="M21.3737 11.9596C21.7643 12.3501 21.7643 12.9833 21.3737 13.3737L14.7071 20.0404C14.3165 20.4309 13.6835 20.4309 13.2929 20.0404L10.6262 17.3737C10.2357 16.9832 10.2357 16.3501 10.6262 15.9596C11.0167 15.5691 11.6499 15.5691 12.0404 15.9596L14 17.9191L16.9797 14.9393L19.9596 11.9596C20.3501 11.569 20.9832 11.569 21.3737 11.9596Z" fill="white"/>
</svg>
