<svg width="17" height="17" viewBox="0 0 17 17" fill="none" xmlns="http://www.w3.org/2000/svg">
<path fill-rule="evenodd" clip-rule="evenodd" d="M5.96008 0.0518226C5.46851 0.189415 5.10096 0.523692 4.61799 1.27242C4.05973 2.1379 4.07118 2.12874 3.22337 2.38434C2.3542 2.64636 2.06043 2.79754 1.75427 3.14046C1.35288 3.59006 1.263 3.97253 1.27716 5.17082C1.28848 6.12913 1.30284 6.08 0.829172 6.70389C0.447864 7.20614 0.340277 7.36896 0.205542 7.64742C-0.068514 8.21395 -0.068514 8.78258 0.205542 9.34912C0.340277 9.62758 0.447864 9.79039 0.829172 10.2926C1.30284 10.9165 1.28848 10.8674 1.27716 11.8257C1.263 13.024 1.35288 13.4065 1.75427 13.8561C2.06043 14.199 2.3542 14.3502 3.22337 14.6122C4.07118 14.8678 4.05973 14.8586 4.61799 15.7241C4.97573 16.2787 5.28483 16.6199 5.57532 16.781C6.09327 17.068 6.58689 17.0708 7.34552 16.7908C8.58816 16.3322 8.41741 16.3322 9.65021 16.7903C10.4041 17.0704 10.9082 17.0678 11.425 16.7811C11.7192 16.6179 12.0245 16.2815 12.3809 15.728C12.9406 14.8586 12.9289 14.868 13.7774 14.6122C14.6466 14.3502 14.9404 14.199 15.2465 13.8561C15.6479 13.4065 15.7378 13.024 15.7236 11.8257C15.7123 10.8674 15.6979 10.9165 16.1716 10.2926C16.5529 9.79039 16.6605 9.62758 16.7952 9.34912C17.124 8.66959 17.0576 7.9972 16.5909 7.27878C16.5348 7.19255 16.3462 6.93385 16.1716 6.70389C15.6979 6.08 15.7123 6.12913 15.7236 5.17082C15.7377 3.98141 15.6451 3.58689 15.2473 3.1414C14.9403 2.7975 14.6472 2.64653 13.7774 2.38434C12.9296 2.12874 12.9411 2.1379 12.3828 1.27242C11.745 0.283733 11.2491 -0.0448649 10.4731 0.00705018C10.1866 0.0262135 10.0009 0.0809159 9.04181 0.428817C8.49654 0.626616 8.47385 0.62362 7.35058 0.206244C6.78663 -0.00329796 6.33583 -0.0533664 5.96008 0.0518226ZM7.19318 1.65014C7.80566 1.87906 8.21321 1.98275 8.50039 1.98275C8.78757 1.98275 9.19512 1.87906 9.80761 1.65014C10.5482 1.37339 10.6754 1.36172 10.8775 1.55178C10.9515 1.62137 11.1649 1.91533 11.3518 2.20508C11.8659 3.00245 12.2133 3.32742 12.7851 3.54595C12.8864 3.58466 13.184 3.67975 13.4466 3.7573C13.9749 3.91333 14.2336 4.03305 14.2986 4.15165C14.3297 4.2083 14.3467 4.51081 14.3597 5.24051C14.3764 6.17547 14.3834 6.26783 14.454 6.47741C14.5599 6.79162 14.7469 7.10942 15.0843 7.54853C15.5536 8.15932 15.6137 8.26719 15.6137 8.49827C15.6137 8.72934 15.5536 8.83721 15.0843 9.448C14.7463 9.88788 14.5594 10.2056 14.4545 10.5191C14.3846 10.7279 14.3772 10.8244 14.3602 11.756C14.3469 12.4849 14.3297 12.7883 14.2986 12.8449C14.2339 12.9628 13.988 13.0765 13.4523 13.2363C13.1866 13.3155 12.8864 13.4119 12.7851 13.4506C12.2135 13.6689 11.866 13.9941 11.3518 14.7915C11.1649 15.0812 10.9494 15.3772 10.8729 15.4491C10.7373 15.5767 10.7285 15.5796 10.5292 15.562C10.3992 15.5506 10.1409 15.4738 9.81959 15.351C9.09125 15.0726 8.94316 15.0366 8.51713 15.034C8.08216 15.0314 7.96206 15.0595 7.22836 15.3357C6.87654 15.4682 6.60182 15.5503 6.47157 15.5619C6.27253 15.5795 6.26343 15.5766 6.12929 15.4504C6.05354 15.3792 5.82441 15.0641 5.62018 14.7503C5.02661 13.8383 4.67355 13.5611 3.78049 13.3062C3.02657 13.0909 2.77903 12.985 2.70214 12.8449C2.67107 12.7883 2.65393 12.4849 2.64061 11.756C2.62354 10.8244 2.61618 10.7279 2.54628 10.5191C2.44251 10.2092 2.25415 9.88701 1.92971 9.46451C1.47185 8.86819 1.37032 8.69331 1.37032 8.50095C1.37032 8.30458 1.46572 8.13828 1.92158 7.5401C2.2658 7.08844 2.44214 6.78845 2.54628 6.47741C2.61618 6.2686 2.62354 6.17212 2.64061 5.24051C2.65393 4.51161 2.67107 4.20823 2.70214 4.15165C2.76721 4.03305 3.0259 3.91333 3.55417 3.7573C3.81674 3.67975 4.11439 3.58466 4.21565 3.54595C4.78747 3.32742 5.13487 3.00245 5.64903 2.20508C5.83589 1.91533 6.04929 1.62137 6.12327 1.55178C6.32539 1.36172 6.45262 1.37339 7.19318 1.65014ZM7.85527 3.63908C6.84431 3.7825 5.91131 4.26963 5.17031 5.0409C3.24436 7.04555 3.34234 10.2672 5.38726 12.174C5.70654 12.4718 6.25157 12.8297 6.65601 13.0072C8.45912 13.7989 10.477 13.3834 11.8444 11.9389C13.4977 10.1923 13.6741 7.50853 12.2642 5.55336C11.2406 4.13385 9.54794 3.39895 7.85527 3.63908ZM9.33726 5.11629C10.5019 5.43298 11.4335 6.40156 11.7523 7.62721C11.8189 7.88337 11.8291 8.00337 11.8278 8.51569C11.8264 9.05738 11.8185 9.1348 11.7353 9.42159C11.411 10.5394 10.6608 11.3907 9.66434 11.7716C9.23435 11.936 9.07097 11.9629 8.50039 11.9633C8.02211 11.9637 7.9099 11.9527 7.66353 11.8816C6.47254 11.5378 5.56645 10.5951 5.24875 9.36932C5.1833 9.11686 5.17199 8.98832 5.17199 8.49827C5.17199 8.00821 5.1833 7.87967 5.24875 7.62721C5.40949 7.00698 5.74337 6.42076 6.18556 5.98223C6.61337 5.55792 7.11646 5.26232 7.64679 5.12361C8.03192 5.02288 8.0668 5.01936 8.58408 5.02964C8.93807 5.03665 9.12232 5.05783 9.33726 5.11629ZM9.58832 6.84824C9.53308 6.87817 9.13781 7.2653 8.70998 7.70853L7.93203 8.5144L7.72248 8.30092C7.46623 8.03992 7.34877 7.97563 7.12827 7.97563C6.74954 7.97563 6.45845 8.27848 6.45845 8.67248C6.45845 8.77021 6.48255 8.90031 6.51201 8.96167C6.58609 9.11595 7.48488 10.0559 7.63709 10.1383C7.78996 10.221 8.06158 10.2266 8.20916 10.1499C8.35702 10.0731 10.3978 7.95385 10.4777 7.7941C10.5988 7.55195 10.5505 7.22049 10.3627 7.00538C10.1859 6.80291 9.81189 6.72702 9.58832 6.84824Z" fill="#F07400"/>
</svg>
