<svg width="144" height="31" viewBox="0 0 144 31" fill="none" xmlns="http://www.w3.org/2000/svg">
<g clip-path="url(#clip0_58_25)">
<path d="M12.9323 1.80701H9.02769L0 23.9942H4.15385L6.36923 18.5725H15.6462L17.8615 23.9942H22.0154L12.96 1.89042L12.9323 1.80701ZM14.1785 14.9859H7.80923L11.0215 7.14528L14.1785 14.9859Z" fill="white"/>
<path d="M32.8153 6.64481C30.3784 6.64481 28.2461 7.75695 27.0276 9.61978C27.0276 8.25741 25.92 7.14527 24.563 7.14527H23.483V30.25H27.443V21.9367C28.6338 23.5215 30.5723 24.4391 32.76 24.4391C37.2461 24.4391 40.3753 20.7412 40.3753 15.4585C40.403 10.2593 37.2738 6.64481 32.8153 6.64481ZM36.36 15.4585C36.36 18.7671 34.56 21.047 31.9846 21.047C29.3261 21.047 27.4707 18.7115 27.4707 15.3473C27.4707 12.2055 29.3261 10.009 31.9569 10.009C34.5876 10.0368 36.36 12.2055 36.36 15.4585Z" fill="white"/>
<path d="M81.0553 1.80701H77.0676V23.9942H92.1876V20.352H81.0553V1.80701Z" fill="white"/>
<path d="M121.265 6.64481C119.105 6.64481 117.166 7.50672 115.92 9.06372V0.25H111.988V23.9942H112.874C114.342 23.9942 115.505 22.7987 115.505 21.3529C116.64 23.2991 118.745 24.4669 121.265 24.4669C125.751 24.4669 128.88 20.769 128.88 15.4863C128.825 10.2593 125.723 6.64481 121.265 6.64481ZM124.809 15.4585C124.809 18.7671 123.009 21.047 120.434 21.047C117.775 21.047 115.92 18.7115 115.92 15.3473C115.92 12.2055 117.775 10.009 120.434 10.009C123.009 10.0368 124.809 12.2611 124.809 15.4585Z" fill="white"/>
<path d="M66.157 15.1805C68.0123 15.1805 69.7847 14.263 70.8647 12.7338L75.1847 6.617H70.7539L68.1231 10.4539C67.68 11.0934 66.96 11.4826 66.157 11.4826C65.3816 11.4826 64.6616 11.0934 64.2185 10.4539L61.56 6.64481H57.1293L61.4493 12.7616C62.5293 14.2908 64.3016 15.1805 66.157 15.1805Z" fill="white"/>
<path d="M66.1846 15.9034H66.1292C64.2738 15.9034 62.5292 16.7931 61.4492 18.2945L57.0461 24.4669H61.5046L64.2461 20.4354C64.6892 19.7959 65.3815 19.4344 66.1569 19.4344C66.9323 19.4344 67.6523 19.8237 68.0677 20.4632L70.7815 24.4947H75.24L70.8092 18.3501C69.7846 16.7931 68.04 15.9034 66.1846 15.9034Z" fill="white"/>
<path d="M57.8215 15.4307C57.7384 10.0924 54.5815 6.64481 49.8184 6.64481C44.9169 6.64481 41.483 10.3427 41.483 15.6253C41.483 20.8246 45.0276 24.4669 50.123 24.4669C54.0553 24.4669 56.9076 22.2982 57.7661 18.6281H53.8892C53.3353 20.1851 51.9784 21.0748 50.1507 21.0748C47.52 21.0748 45.72 19.2954 45.4153 16.4594H57.8215V15.4307ZM45.6092 13.5957C46.1907 11.3714 47.7415 10.0368 49.8184 10.0368C51.8123 10.0368 53.2523 11.3436 53.7507 13.5957H45.6092Z" fill="white"/>
<path d="M138.683 14.1796L136.689 13.5123C136.578 13.4845 136.468 13.4289 136.357 13.4011C135.277 13.0396 134.169 12.6782 134.169 11.5938C134.169 10.5373 135.083 9.89782 136.606 9.89782C138.572 9.89782 139.735 10.8431 139.902 12.5392H143.64V12.5113C143.197 8.78568 140.621 6.64481 136.606 6.64481C132.701 6.64481 130.265 8.56325 130.265 11.6494C130.265 14.7356 132.508 15.7088 135.471 16.6819L137.935 17.4882C139.209 17.9052 140.068 18.1833 140.068 19.2676C140.068 20.8246 138.572 21.1304 137.326 21.1304C135.249 21.1304 133.892 20.1295 133.782 18.5447H129.96C130.181 22.2704 132.923 24.4391 137.52 24.4391C141.591 24.4391 144 22.5484 144 19.351C144 16.2092 141.785 15.2361 138.683 14.1796Z" fill="white"/>
<path d="M109.329 21.1026C108.858 21.1026 108.637 20.908 108.637 20.5188V12.7338C108.637 8.9525 105.923 6.617 101.575 6.617C97.2831 6.617 94.0708 9.11932 93.7108 12.6782H97.6708C97.8923 11.01 99.4431 9.89782 101.492 9.89782C103.486 9.89782 104.732 10.8709 104.76 12.4557C104.732 13.5679 103.182 13.7347 101.049 13.9571L100.495 14.0127C96.9508 14.4298 93.3231 15.3751 93.2954 19.212C93.2954 20.5188 93.7108 21.6587 94.5693 22.5206C95.7046 23.6606 97.477 24.2722 99.6923 24.2722C102.295 24.2722 104.151 23.3825 105.231 21.6309C105.258 21.7143 105.286 21.7977 105.314 21.8811C105.618 23.1879 106.726 23.9108 108.443 23.9108H110.326V21.1026H109.329ZM104.815 17.6272C104.815 19.7125 103.043 21.1582 100.523 21.1582C98.4739 21.1582 97.3385 20.3797 97.3385 18.9896C97.3385 17.4048 98.8616 17.0989 100.994 16.8209C102.489 16.6263 104.012 16.4316 104.815 15.6531V17.6272Z" fill="white"/>
</g>
<defs>
<clipPath id="clip0_58_25">
<rect width="144" height="30" fill="white" transform="translate(0 0.25)"/>
</clipPath>
</defs>
</svg>
