<svg width="32" height="33" viewBox="0 0 32 33" fill="none" xmlns="http://www.w3.org/2000/svg">
<g id="next (1) 2">
<g id="layer1">
<path id="path9429" d="M11.3791 7.42317C11.1021 7.41708 10.83 7.4974 10.6007 7.65309C10.3714 7.80878 10.1964 8.03214 10.0998 8.29193C10.0033 8.55172 9.99012 8.83508 10.0621 9.10271C10.1341 9.37033 10.2877 9.60877 10.5015 9.78507L18.6604 16.7746L10.5015 23.7618C10.3536 23.8705 10.2297 24.0085 10.1376 24.1673C10.0456 24.3261 9.98727 24.5023 9.96641 24.6846C9.94554 24.867 9.96256 25.0517 10.0164 25.2272C10.0702 25.4027 10.1597 25.5653 10.2793 25.7046C10.3988 25.8439 10.5458 25.9569 10.7111 26.0368C10.8764 26.1166 11.0564 26.1615 11.2398 26.1686C11.4233 26.1756 11.6062 26.1449 11.7771 26.078C11.9481 26.0111 12.1034 25.9096 12.2333 25.7799L21.5744 17.7877C21.7211 17.6625 21.8389 17.5071 21.9197 17.332C22.0005 17.1569 22.0423 16.9663 22.0423 16.7734C22.0423 16.5806 22.0005 16.39 21.9197 16.2148C21.8389 16.0397 21.7211 15.8842 21.5744 15.759L12.2333 7.75905C11.9973 7.54945 11.6947 7.4306 11.3791 7.42317Z" fill="white"/>
</g>
</g>
</svg>
