<svg width="33" height="33" viewBox="0 0 33 33" fill="none" xmlns="http://www.w3.org/2000/svg">
<g id="next (1) 1">
<g id="layer1">
<path id="path9429" d="M20.7241 26.0685C21.0012 26.0746 21.2733 25.9943 21.5026 25.8386C21.7318 25.6829 21.9069 25.4596 22.0034 25.1998C22.1 24.94 22.1131 24.6566 22.0412 24.389C21.9692 24.1214 21.8156 23.8829 21.6017 23.7066L13.4429 16.7171L21.6017 9.72994C21.7497 9.62123 21.8735 9.48321 21.9656 9.3244C22.0577 9.16559 22.116 8.98944 22.1369 8.80706C22.1577 8.62467 22.1407 8.43999 22.0869 8.26449C22.0331 8.08899 21.9436 7.92644 21.824 7.78712C21.7045 7.64781 21.5575 7.5348 21.3922 7.45494C21.2269 7.37508 21.0469 7.33022 20.8635 7.32314C20.68 7.31606 20.4971 7.34683 20.3261 7.41372C20.1552 7.48061 19.9999 7.58208 19.87 7.71177L10.5288 15.704C10.3821 15.8292 10.2643 15.9846 10.1836 16.1597C10.1028 16.3348 10.061 16.5254 10.061 16.7183C10.061 16.9111 10.1028 17.1017 10.1836 17.2768C10.2643 17.452 10.3821 17.6075 10.5288 17.7327L19.87 25.7326C20.1059 25.9422 20.4086 26.0611 20.7241 26.0685Z" fill="white"/>
</g>
</g>
</svg>
