<svg width="161" height="32" viewBox="0 0 161 32" fill="none" xmlns="http://www.w3.org/2000/svg">
<path d="M14.6863 2.92536C14.9857 2.00405 16.2891 2.00405 16.5884 2.92536L18.9235 10.112C19.0574 10.524 19.4414 10.803 19.8746 10.803H27.4311C28.3998 10.803 28.8026 12.0426 28.0189 12.612L21.9055 17.0536C21.555 17.3082 21.4084 17.7596 21.5423 18.1716L23.8773 25.3583C24.1767 26.2796 23.1222 27.0457 22.3385 26.4763L16.2252 22.0347C15.8747 21.7801 15.4001 21.7801 15.0496 22.0347L8.93629 26.4763C8.15258 27.0457 7.0981 26.2796 7.39745 25.3583L9.73254 18.1716C9.86641 17.7596 9.71975 17.3082 9.36927 17.0536L3.25593 12.612C2.47222 12.0426 2.87499 10.803 3.84372 10.803H11.4002C11.8334 10.803 12.2174 10.524 12.3512 10.112L14.6863 2.92536Z" fill="#FFC107"/>
<path d="M47.118 2.92536C47.4173 2.00405 48.7207 2.00405 49.0201 2.92536L51.3552 10.112C51.489 10.524 51.873 10.803 52.3062 10.803H59.8627C60.8314 10.803 61.2342 12.0426 60.4505 12.612L54.3372 17.0536C53.9867 17.3082 53.84 17.7596 53.9739 18.1716L56.309 25.3583C56.6083 26.2796 55.5539 27.0457 54.7701 26.4763L48.6568 22.0347C48.3063 21.7801 47.8317 21.7801 47.4812 22.0347L41.3679 26.4763C40.5842 27.0457 39.5297 26.2796 39.8291 25.3583L42.1642 18.1716C42.298 17.7596 42.1514 17.3082 41.8009 17.0536L35.6876 12.612C34.9038 12.0426 35.3066 10.803 36.2753 10.803H43.8318C44.2651 10.803 44.649 10.524 44.7829 10.112L47.118 2.92536Z" fill="#FFC107"/>
<path d="M79.5496 2.92536C79.849 2.00405 81.1524 2.00405 81.4517 2.92536L83.7868 10.112C83.9207 10.524 84.3046 10.803 84.7379 10.803H92.2944C93.2631 10.803 93.6659 12.0426 92.8822 12.612L86.7688 17.0536C86.4183 17.3082 86.2717 17.7596 86.4055 18.1716L88.7406 25.3583C89.04 26.2796 87.9855 27.0457 87.2018 26.4763L81.0885 22.0347C80.738 21.7801 80.2634 21.7801 79.9129 22.0347L73.7996 26.4763C73.0158 27.0457 71.9614 26.2796 72.2607 25.3583L74.5958 18.1716C74.7297 17.7596 74.583 17.3082 74.2325 17.0536L68.1192 12.612C67.3355 12.0426 67.7383 10.803 68.707 10.803H76.2635C76.6967 10.803 77.0807 10.524 77.2145 10.112L79.5496 2.92536Z" fill="#FFC107"/>
<path d="M111.982 2.92536C112.281 2.00405 113.584 2.00405 113.884 2.92536L116.219 10.112C116.353 10.524 116.737 10.803 117.17 10.803H124.726C125.695 10.803 126.098 12.0426 125.314 12.612L119.201 17.0536C118.85 17.3082 118.704 17.7596 118.837 18.1716L121.173 25.3583C121.472 26.2796 120.417 27.0457 119.634 26.4763L113.52 22.0347C113.17 21.7801 112.695 21.7801 112.345 22.0347L106.231 26.4763C105.448 27.0457 104.393 26.2796 104.693 25.3583L107.028 18.1716C107.162 17.7596 107.015 17.3082 106.664 17.0536L100.551 12.612C99.7672 12.0426 100.17 10.803 101.139 10.803H108.695C109.129 10.803 109.513 10.524 109.646 10.112L111.982 2.92536Z" fill="#FFC107"/>
<path d="M144.413 2.92536C144.713 2.00405 146.016 2.00405 146.315 2.92536L148.65 10.112C148.784 10.524 149.168 10.803 149.601 10.803H157.158C158.127 10.803 158.529 12.0426 157.746 12.612L151.632 17.0536C151.282 17.3082 151.135 17.7596 151.269 18.1716L153.604 25.3583C153.904 26.2796 152.849 27.0457 152.065 26.4763L145.952 22.0347C145.602 21.7801 145.127 21.7801 144.776 22.0347L138.663 26.4763C137.879 27.0457 136.825 26.2796 137.124 25.3583L139.459 18.1716C139.593 17.7596 139.447 17.3082 139.096 17.0536L132.983 12.612C132.199 12.0426 132.602 10.803 133.571 10.803H141.127C141.56 10.803 141.944 10.524 142.078 10.112L144.413 2.92536Z" fill="#FFC107"/>
</svg>
