<svg width="145" height="29" viewBox="0 0 145 29" fill="none" xmlns="http://www.w3.org/2000/svg">
<g clip-path="url(#clip0_332_1442)">
<g clip-path="url(#clip1_332_1442)">
<mask id="mask0_332_1442" style="mask-type:luminance" maskUnits="userSpaceOnUse" x="0" y="0" width="25" height="25">
<path d="M24.7324 0.546875H0.732422V24.5469H24.7324V0.546875Z" fill="white"/>
</mask>
<g mask="url(#mask0_332_1442)">
<path d="M24.6698 9.75383C24.5127 9.26785 24.0817 8.92269 23.5717 8.87673L16.6446 8.24775L13.9055 1.83651C13.7035 1.36665 13.2436 1.0625 12.7325 1.0625C12.2214 1.0625 11.7615 1.36665 11.5595 1.83761L8.82039 8.24775L1.89223 8.87673C1.38319 8.92379 0.95325 9.26785 0.795225 9.75383C0.637201 10.2398 0.78314 10.7729 1.16822 11.1089L6.40425 15.7009L4.86027 22.5022C4.74729 23.0022 4.94139 23.5192 5.35631 23.8191C5.57934 23.9802 5.84027 24.0623 6.1034 24.0623C6.33028 24.0623 6.55532 24.0011 6.75729 23.8802L12.7325 20.3091L18.7056 23.8802C19.1426 24.1432 19.6936 24.1192 20.1076 23.8191C20.5227 23.5182 20.7167 23.0011 20.6037 22.5022L19.0597 15.7009L24.2957 11.1098C24.6808 10.7729 24.8278 10.2407 24.6698 9.75383Z" fill="#FFC107"/>
</g>
</g>
</g>
<g clip-path="url(#clip2_332_1442)">
<g clip-path="url(#clip3_332_1442)">
<mask id="mask1_332_1442" style="mask-type:luminance" maskUnits="userSpaceOnUse" x="29" y="0" width="25" height="25">
<path d="M53.7324 0.546875H29.7324V24.5469H53.7324V0.546875Z" fill="white"/>
</mask>
<g mask="url(#mask1_332_1442)">
<path d="M53.6698 9.75383C53.5127 9.26785 53.0817 8.92269 52.5717 8.87673L45.6446 8.24775L42.9055 1.83651C42.7035 1.36665 42.2436 1.0625 41.7325 1.0625C41.2214 1.0625 40.7615 1.36665 40.5595 1.83761L37.8204 8.24775L30.8922 8.87673C30.3832 8.92379 29.9533 9.26785 29.7952 9.75383C29.6372 10.2398 29.7831 10.7729 30.1682 11.1089L35.4043 15.7009L33.8603 22.5022C33.7473 23.0022 33.9414 23.5192 34.3563 23.8191C34.5793 23.9802 34.8403 24.0623 35.1034 24.0623C35.3303 24.0623 35.5553 24.0011 35.7573 23.8802L41.7325 20.3091L47.7056 23.8802C48.1426 24.1432 48.6936 24.1192 49.1076 23.8191C49.5227 23.5182 49.7167 23.0011 49.6037 22.5022L48.0597 15.7009L53.2957 11.1098C53.6808 10.7729 53.8278 10.2407 53.6698 9.75383Z" fill="#FFC107"/>
</g>
</g>
</g>
<g clip-path="url(#clip4_332_1442)">
<g clip-path="url(#clip5_332_1442)">
<mask id="mask2_332_1442" style="mask-type:luminance" maskUnits="userSpaceOnUse" x="58" y="0" width="25" height="25">
<path d="M82.7324 0.546875H58.7324V24.5469H82.7324V0.546875Z" fill="white"/>
</mask>
<g mask="url(#mask2_332_1442)">
<path d="M82.6698 9.75383C82.5127 9.26785 82.0817 8.92269 81.5717 8.87673L74.6446 8.24775L71.9055 1.83651C71.7035 1.36665 71.2436 1.0625 70.7325 1.0625C70.2214 1.0625 69.7615 1.36665 69.5595 1.83761L66.8204 8.24775L59.8922 8.87673C59.3832 8.92379 58.9533 9.26785 58.7952 9.75383C58.6372 10.2398 58.7831 10.7729 59.1682 11.1089L64.4043 15.7009L62.8603 22.5022C62.7473 23.0022 62.9414 23.5192 63.3563 23.8191C63.5793 23.9802 63.8403 24.0623 64.1034 24.0623C64.3303 24.0623 64.5553 24.0011 64.7573 23.8802L70.7325 20.3091L76.7056 23.8802C77.1426 24.1432 77.6936 24.1192 78.1076 23.8191C78.5227 23.5182 78.7167 23.0011 78.6037 22.5022L77.0597 15.7009L82.2957 11.1098C82.6808 10.7729 82.8278 10.2407 82.6698 9.75383Z" fill="#FFC107"/>
</g>
</g>
</g>
<g clip-path="url(#clip6_332_1442)">
<g clip-path="url(#clip7_332_1442)">
<mask id="mask3_332_1442" style="mask-type:luminance" maskUnits="userSpaceOnUse" x="87" y="0" width="25" height="25">
<path d="M111.732 0.546875H87.7324V24.5469H111.732V0.546875Z" fill="white"/>
</mask>
<g mask="url(#mask3_332_1442)">
<path d="M111.67 9.75383C111.513 9.26785 111.082 8.92269 110.572 8.87673L103.645 8.24775L100.906 1.83651C100.704 1.36665 100.244 1.0625 99.7325 1.0625C99.2214 1.0625 98.7615 1.36665 98.5595 1.83761L95.8204 8.24775L88.8922 8.87673C88.3832 8.92379 87.9533 9.26785 87.7952 9.75383C87.6372 10.2398 87.7831 10.7729 88.1682 11.1089L93.4043 15.7009L91.8603 22.5022C91.7473 23.0022 91.9414 23.5192 92.3563 23.8191C92.5793 23.9802 92.8403 24.0623 93.1034 24.0623C93.3303 24.0623 93.5553 24.0011 93.7573 23.8802L99.7325 20.3091L105.706 23.8802C106.143 24.1432 106.694 24.1192 107.108 23.8191C107.523 23.5182 107.717 23.0011 107.604 22.5022L106.06 15.7009L111.296 11.1098C111.681 10.7729 111.828 10.2407 111.67 9.75383Z" fill="#FFC107"/>
</g>
</g>
</g>
<g clip-path="url(#clip8_332_1442)">
<g clip-path="url(#clip9_332_1442)">
<g clip-path="url(#clip10_332_1442)">
<mask id="mask4_332_1442" style="mask-type:luminance" maskUnits="userSpaceOnUse" x="116" y="0" width="25" height="25">
<path d="M140.699 0.5H116.699V24.5H140.699V0.5Z" fill="white"/>
</mask>
<g mask="url(#mask4_332_1442)">
<path d="M140.699 9.80154C140.499 9.30154 140.099 9.00155 139.599 8.90155L132.699 8.30154L129.999 1.90155C129.799 1.40155 129.299 1.10156 128.799 1.10156C128.299 1.10156 127.799 1.40155 127.599 1.90155L124.899 8.30154L117.999 8.90155C117.499 8.90155 117.099 9.30154 116.899 9.80154C116.699 10.3015 116.899 10.8016 117.299 11.2016L122.499 15.8015L120.999 22.6016C120.899 23.1016 121.099 23.6016 121.499 23.9016C121.699 24.1016 121.999 24.1016 122.199 24.1016C122.399 24.1016 122.699 24.0016 122.899 23.9016L128.899 20.3015L134.899 23.9016C135.299 24.2016 135.899 24.1015 136.299 23.8015C136.699 23.5015 136.899 23.0016 136.799 22.5016L135.299 15.7016L140.499 11.1016C140.699 10.8016 140.799 10.2015 140.699 9.80154Z" fill="#FFC107"/>
</g>
<path d="M141.001 0.5H134.301V25H141.001V0.5Z" fill="white"/>
</g>
</g>
</g>
<defs>
<clipPath id="clip0_332_1442">
<rect width="25" height="25" fill="white"/>
</clipPath>
<clipPath id="clip1_332_1442">
<rect width="25" height="25" fill="white"/>
</clipPath>
<clipPath id="clip2_332_1442">
<rect width="25" height="25" fill="white" transform="translate(29)"/>
</clipPath>
<clipPath id="clip3_332_1442">
<rect width="25" height="25" fill="white" transform="translate(29)"/>
</clipPath>
<clipPath id="clip4_332_1442">
<rect width="25" height="25" fill="white" transform="translate(58)"/>
</clipPath>
<clipPath id="clip5_332_1442">
<rect width="25" height="25" fill="white" transform="translate(58)"/>
</clipPath>
<clipPath id="clip6_332_1442">
<rect width="25" height="25" fill="white" transform="translate(87)"/>
</clipPath>
<clipPath id="clip7_332_1442">
<rect width="25" height="25" fill="white" transform="translate(87)"/>
</clipPath>
<clipPath id="clip8_332_1442">
<rect width="25" height="25" fill="white" transform="translate(116)"/>
</clipPath>
<clipPath id="clip9_332_1442">
<rect width="25" height="25" fill="white" transform="translate(116)"/>
</clipPath>
<clipPath id="clip10_332_1442">
<rect width="25" height="25" fill="white" transform="translate(116)"/>
</clipPath>
</defs>
</svg>
