<svg width="33" height="17" viewBox="0 0 33 17" fill="none" xmlns="http://www.w3.org/2000/svg">
<path fill-rule="evenodd" clip-rule="evenodd" d="M11.8917 0.0632818L8.68342 0.0976376L8.53244 0.266971C8.40586 0.408886 8.16707 1.4603 7.05423 6.7747C6.3243 10.2608 5.71486 13.2766 5.7 13.4765C5.66506 13.9463 5.82727 14.2438 6.23025 14.4493C6.51199 14.593 6.59371 14.5996 8.09487 14.5996H9.66487L9.8651 14.4065C10.1227 14.158 10.1364 13.8279 9.90017 13.5628L9.73495 13.3774L8.36935 13.3571L7.00367 13.3368L8.25344 7.35722C8.94083 4.06841 9.51726 1.36404 9.53445 1.34745C9.55164 1.33087 12.8058 1.29816 16.766 1.27471C23.0899 1.23732 23.9711 1.24399 24.0053 1.32994C24.0267 1.38379 23.5815 3.89346 23.0159 6.9071C22.4504 9.92067 21.9498 12.6019 21.9035 12.8653L21.8193 13.3443H20.126H18.4327L18.222 13.5154C18.0465 13.6578 18.0112 13.7342 18.0112 13.972C18.0112 14.2098 18.0465 14.2862 18.222 14.4286L18.4327 14.5996H20.4516C22.6597 14.5996 22.7861 14.5804 22.9295 14.2228C23.0809 13.8455 25.3519 1.4889 25.3174 1.23064C25.2601 0.802652 24.9458 0.386885 24.5232 0.180223L24.1516 -0.00146484L19.6258 0.0137306C17.1366 0.0221213 13.6563 0.0444523 11.8917 0.0632818ZM0.196145 0.257721C-0.0273687 0.473302 -0.0583305 0.696679 0.0954505 0.983547C0.276289 1.32089 0.326019 1.32505 3.891 1.30523L7.20027 1.28687L7.36556 1.10148C7.60195 0.836347 7.58825 0.50627 7.33062 0.257721L7.1304 0.0646034H3.76338H0.396368L0.196145 0.257721ZM2.71164 3.46395C2.51471 3.64002 2.46642 3.98813 2.60437 4.23682C2.75973 4.51681 3.03846 4.55725 4.81272 4.55725C6.6335 4.55725 6.85825 4.52322 7.01916 4.22301C7.1741 3.93409 7.14362 3.71111 6.91963 3.49507L6.7194 3.30195H4.80615H2.89289L2.71164 3.46395ZM26.2577 3.76139C26.0388 3.84933 25.8202 4.15489 25.8202 4.37305C25.8202 4.49977 25.8898 4.63461 26.0204 4.76054L26.2206 4.95366H28.2505H30.2804L30.5096 5.43873C30.7402 5.92684 31.3123 7.30324 31.3995 7.57987L31.4464 7.72853H28.4658H25.4853L25.3079 7.87718C25.2038 7.96439 25.1143 8.12447 25.0912 8.26454C25.0579 8.46598 25.0841 8.53813 25.2591 8.72702L25.4664 8.95079L28.5914 8.96922L31.7166 8.98772L31.682 9.20046C31.663 9.31753 31.5014 10.2977 31.3228 11.3788L30.9982 13.3443H30.2258H29.4534L29.3178 13.088C29.1083 12.6918 28.5742 12.2206 28.0839 11.9993C27.5104 11.7404 26.7122 11.6825 26.1535 11.8592C24.8442 12.2735 24.0977 13.4077 24.2516 14.7491C24.3765 15.8385 25.39 16.8223 26.5426 16.9731C27.938 17.1558 29.2154 16.3373 29.57 15.0334L29.688 14.5996H30.6687C31.7554 14.5996 31.978 14.5415 32.112 14.2228C32.2011 14.0108 32.8314 10.3615 32.9526 9.35592C33.0233 8.76877 33.0185 8.6184 32.9137 8.15698C32.6818 7.13497 31.4372 4.17603 31.1172 3.88593L30.9468 3.73139L28.6746 3.71732C27.4249 3.70959 26.3373 3.72941 26.2577 3.76139ZM3.78359 6.54333C3.33328 6.6752 3.19594 7.22931 3.53295 7.55437C3.71297 7.728 3.71701 7.72853 4.80546 7.72853H5.89741L6.09763 7.53541C6.36334 7.27913 6.36348 7.00865 6.09805 6.72204L5.89823 6.50626L4.95068 6.49265C4.42954 6.48512 3.90435 6.50791 3.78359 6.54333ZM12.688 11.8871C11.7118 12.2321 11.0598 12.9922 10.8994 13.9724C10.6655 15.4008 11.7169 16.7809 13.1853 16.9731C14.3932 17.1312 15.5227 16.5395 16.0458 15.4744C16.2464 15.0659 16.2645 14.9744 16.2645 14.3684C16.2645 13.7674 16.2455 13.6689 16.0534 13.2781C15.7817 12.7251 15.2937 12.2553 14.7235 11.9978C14.1435 11.7358 13.2528 11.6874 12.688 11.8871ZM14.1594 13.1163C14.6852 13.3281 14.9943 13.7917 14.9943 14.3684C14.9943 15.4822 13.7219 16.1437 12.7786 15.5203C11.8643 14.916 11.9702 13.6335 12.9765 13.1235C13.2414 12.9892 13.8352 12.9856 14.1594 13.1163ZM27.5868 13.1397C28.0891 13.3882 28.3546 13.8246 28.3546 14.402C28.3546 15.0266 27.8974 15.575 27.2521 15.7243C26.2608 15.9537 25.3068 15.0335 25.5446 14.0774C25.6377 13.7029 25.94 13.3252 26.2888 13.1475C26.6261 12.9757 27.2475 12.9719 27.5868 13.1397Z" fill="#F07400"/>
</svg>
